<mxfile host="Electron" modified="2025-04-01T22:14:46.970Z" agent="Mozilla/5.0 (Windows NT 10.0; Win64; x64) AppleWebKit/537.36 (KHTML, like Gecko) draw.io/22.0.3 Chrome/114.0.5735.289 Electron/25.8.4 Safari/537.36" etag="_oyT3pGMPNs9tp7oFdQM" version="22.0.3" type="device" pages="2">
  <diagram name="selenium" id="9iy_4iQsms4ijQ-rDRHt">
    <mxGraphModel dx="775" dy="563" grid="1" gridSize="10" guides="1" tooltips="1" connect="1" arrows="1" fold="1" page="1" pageScale="1" pageWidth="827" pageHeight="1169" math="0" shadow="0">
      <root>
        <mxCell id="0" />
        <mxCell id="1" parent="0" />
        <mxCell id="usIYUvxiIXVekD-gWqzG-1" value="&lt;b&gt;&lt;font style=&quot;font-size: 20px&quot;&gt;Lorem Ipsum&lt;/font&gt;&lt;/b&gt;&lt;br style=&quot;font-size: 14px&quot;&gt;&lt;br style=&quot;font-size: 14px&quot;&gt;Lorem ipsum dolor sit amet, consectetur adipiscing elit. Sed do eiusmod tempor incididunt ut&amp;nbsp;" style="html=1;shadow=0;dashed=0;shape=mxgraph.bootstrap.rrect;rSize=5;strokeColor=#33A64C;html=1;whiteSpace=wrap;fillColor=#ffffff;fontColor=#33A64C;verticalAlign=bottom;align=left;spacing=20;spacingBottom=0;fontSize=14;" vertex="1" parent="1">
          <mxGeometry x="259" y="331" width="280" height="179" as="geometry" />
        </mxCell>
        <mxCell id="usIYUvxiIXVekD-gWqzG-2" value="&lt;b&gt;Firefox&lt;/b&gt;" style="html=1;shadow=0;dashed=0;shape=mxgraph.bootstrap.topButton;rSize=5;perimeter=none;whiteSpace=wrap;fillColor=#F7F7F7;strokeColor=#33A64C;fontColor=#6C767D;resizeWidth=1;fontSize=18;align=left;spacing=20;" vertex="1" parent="usIYUvxiIXVekD-gWqzG-1">
          <mxGeometry width="280" height="50" relative="1" as="geometry" />
        </mxCell>
        <mxCell id="usIYUvxiIXVekD-gWqzG-3" value="" style="shape=image;aspect=fixed;image=data:image/png,iVBORw0KGgoAAAANSUhEUgAAACcAAAAsCAYAAADmZKH2AAAAAXNSR0IArs4c6QAAAARnQU1BAACxjwv8YQUAAAAJcEhZcwAADsMAAA7DAcdvqGQAAAfLSURBVFhH7ZhdjFxVHcB//3POvTNzZ3dmd7vT3S2VFgqlS5E2FIzUUFQ+E1CsJEqiGKIRExJMjCZK8EF9MOGZVxPjKxrDgxiVYggxoEEUFEgVLV/93u3sfN/vc3y409Lu7LbLggkP/SX/zMydc+79zf+c+z/njszPzzs+oqjlBz5KXJRbLxfl1suHLmeMsP0Kn588spGHH5yiUpHlTdbMhyqnNdyyL+CxRxvce/c499w5zif3BCi1PsEPVW5mWvPVe2tcuc0gWphraL79jTqNDXp50zWxJjkloNfQcs81Ja7eYlBKgXWIgu1bfb7/0CQTtTWcYBkX7DFWcnx2R8p1WywyHB2tBbMsGVrDfXeUqHgZpBnkOViLKMctn/J5+IEa05MXvNw5nLe1Vo7P74h49NYu2zdmAFR94YvX+2yaOtdu1xWGa7fkEGeQZJDlkFuwFs8I+28t8+W7AsYCRbl83sue4bytdm3I+PrOATN+RqByttY0j905xld2l8Ge2/b260DnOcQJRAkkeZHBzELuKJcUD+wP2H9blfu/UGdm+sLzUDcajR8tPwgwW3H89IaIbZM5iGWyItw4WePGGU0/gd8cTAnjErP6Mnb5+9gzuRvT3k4WBmg1QHspIg6sBefAgW8Mcw1Nfcxj3yfKPP/3iChefd+xolzVwA925uxtWEQXnaeqKZs29dCTA8TPOHxsM9v7D3B76X52mb2YxWtZ+vdujr58A8de3U0aa8ZnDqNVDA5AwCkmAqHdytkxX2HhVMbBQwluFb8ROQFumoKvfQwCbzjw4hBxiLKgM0rljI9fJkzEN+PCebQqo/EQZ3CZR575tI7MkEWOibl30ToDqwCFiKY2rij7QrXieO6vEWG0st2IXFnBl2YVe2puWDxdYQzD4SlEgyBkduvLSMWy1JondQFOCQ7Bn+iw7a6nqV/+NlrH+DoEK0U4hacMSkD5jhdfiTm+mJ+tcIaRGyLQwhYtqNhAokApmAK2GNhWhdlx8DxILb5ZYPuun3HD577L5I6/EJUUse/RaW3kjT/chl9JqG7qgicQAyEQAQlghVpFmJ02yOkatYwRuYoIDWtQuYHEgAHqOZQdaGDMg0sm4JIpmJlAzVao7zzO5s8cIAwUoe8RGp/m4iwHf7+PpO2BzousD6QQHAhYR7Vk2DrnoVe5cUfkqiIEeBCbIk6W4T8BLGqI3Zna1Q7n+Odbd/Ps377D7/74Yw789hE6KqDvaUIjhKJ4+9WraP53IyQJSFyI9QT6AsSQQK2i0ausvSNyvlV4iYZ0GJEHJ8rwWgBvFcN56M15fvHLH/LkgYd47qX9/OONvSzGNSItxAoigRjHUrNO9+RYUZiztPhxfVXUPpdCDHW/mH8rMSKX5ookPitzsYHIwMBAU3PyRIMnnrqPQyc3cCqxtFxEW/q09YCOCumRENm0iDxj0PRwvRwGroi+gB9CYnE9RdgDZ1e+W0fkokxIeuWhmFeIRV4RSz6tY3UWukIvbdNLW3SyFp28TTdv07FtenmHft4nTEOctKmYRaQNNA1uycORgoqLedfW9FqOVdxG5frOcarv4xIDsYZkGJGBrs9me4Ja7Rhx2iNKOkRJlzDtMkg7hEmHMOkSJl3ipE8QHKVumtAy0DK4GAh6kOS4vpC2hWMLKWm2st2IXCSWd0Mh7pliziXDDCYaQkNwRPHpzX8m0EvYfp+81yXtt0kGbeKwQxy1iaM2Wdpmy/TrTNOEpgddhYx1EZvBQHALJXpNzdFT2bD0jzJShDMcG6JxroknGSulRTcr4IYRGTbJErV6h5Yr0+4GkKS4JMHFERLFVLI21068ws2X/okxGxf9ShmiLWQKF3nkC3UOLVp+9XqLVlTseJYzIucE2irj+uYl1EVRKqXvfeEErELHwqUsMh+8TVlikszQTUvUpMN1pYPcMfE8eydfou53EZ2DsUXfXEGmyJrjuG7AM+/0eOZwm2yVSScr/R0hDu7pbeVbgzlmNi1RqkSIyYtiatzw1YK2pFpIlCEVhRJLSVJ8nRZZMg7KUkSpiNyVSZem6Tnhe6+9w4vNHm6VlX8kc1BMgUN+l9lwnLl4DM9zxTbdCmKL7J0ObcG3lrLNKbkM4xxiVZGlVBdLYFpkzA5KJMenSAYVfn28xZMnTmFXEWNVOSAXx1t+yNXdBqWwglbFVrwY2qFk/p4k+XvDRq6L96c/J4qsX2ZwdANJp8qBfofHFw4T2ZUX/NOsKgfQVylNk3F5v44XBmS5IKJQUuwunFNFlk6LnhMaMkUee8TNMQaHp4k7VV7IujwevkPTxssvN8KKc+5sNIqrogm+2d7GVXmA8mK8ckxQTalUMrSyiMoRHCiLYEFBniv63TJxP8BGFbLc8HSwwM/H3mRRIlyxAz0vF5QrEKazgAdbV3J9WMXXCqVTnMrwSjmeyRHlEBwuV2SZIY99lPVQ1qNpHU+NH+GJ8TcZqOHdvwbWKAcg+M6wM5rgprDBjmSMSaepWo1XbJcRIHOOVBShZBzRMa+XurxQOcm//BZOlj0VXYD3ITfECSVrmLAlGnmZjVmZwJmhGmRYepJxysQcNX36OiUhO/PM+354/3JnkDMPLmdftzjZ8JRy1vt1MLK2rh1XVGuxuLMCscPj7gOJ8cHk/v9clFsvF+XWy0W59fI/W+KJ3jfKcCEAAAAASUVORK5CYII=;" vertex="1" parent="usIYUvxiIXVekD-gWqzG-1">
          <mxGeometry x="229.60000000000002" y="4.972222222222222" width="38.78333333333333" height="43.75555555555556" as="geometry" />
        </mxCell>
        <mxCell id="usIYUvxiIXVekD-gWqzG-4" value="דפדפן" style="text;html=1;align=center;verticalAlign=middle;resizable=0;points=[];autosize=1;strokeColor=none;fillColor=none;fontSize=48;" vertex="1" parent="usIYUvxiIXVekD-gWqzG-1">
          <mxGeometry x="116.48000000000002" y="99.44444444444444" width="140" height="70" as="geometry" />
        </mxCell>
        <mxCell id="usIYUvxiIXVekD-gWqzG-6" value="selenium" style="html=1;shadow=0;dashed=0;shape=mxgraph.bootstrap.rrect;rSize=5;strokeColor=#666666;strokeWidth=1;fillColor=#f5f5f5;fontColor=#333333;whiteSpace=wrap;align=center;verticalAlign=middle;spacingLeft=0;fontStyle=0;fontSize=16;spacing=5;" vertex="1" parent="1">
          <mxGeometry x="320" y="620" width="160" height="80" as="geometry" />
        </mxCell>
        <mxCell id="usIYUvxiIXVekD-gWqzG-7" value="" style="shape=flexArrow;endArrow=classic;startArrow=classic;html=1;rounded=0;" edge="1" parent="1">
          <mxGeometry width="100" height="100" relative="1" as="geometry">
            <mxPoint x="401" y="621" as="sourcePoint" />
            <mxPoint x="400" y="511" as="targetPoint" />
          </mxGeometry>
        </mxCell>
        <mxCell id="usIYUvxiIXVekD-gWqzG-8" value="" style="fontColor=#0066CC;verticalAlign=top;verticalLabelPosition=bottom;labelPosition=center;align=center;html=1;outlineConnect=0;fillColor=#CCCCCC;strokeColor=#6881B3;gradientColor=none;gradientDirection=north;strokeWidth=2;shape=mxgraph.networks.rack;" vertex="1" parent="1">
          <mxGeometry x="363" y="81" width="72" height="120" as="geometry" />
        </mxCell>
        <mxCell id="usIYUvxiIXVekD-gWqzG-9" value="" style="shape=flexArrow;endArrow=classic;startArrow=classic;html=1;rounded=0;entryX=0.5;entryY=1;entryDx=0;entryDy=0;entryPerimeter=0;exitX=0.5;exitY=-0.04;exitDx=0;exitDy=0;exitPerimeter=0;" edge="1" parent="1">
          <mxGeometry width="100" height="100" relative="1" as="geometry">
            <mxPoint x="400" y="329" as="sourcePoint" />
            <mxPoint x="400" y="201" as="targetPoint" />
          </mxGeometry>
        </mxCell>
        <mxCell id="JCf7mnqvbxsUBlo43Zsg-1" value="&lt;font color=&quot;#00cc00&quot;&gt;driver:Driver = Driver(Chrome)&lt;br&gt;driver.execute_locator(locator)&lt;/font&gt;" style="html=1;shadow=0;dashed=0;shape=mxgraph.bootstrap.rrect;rSize=5;strokeColor=#6C767D;strokeWidth=1;fillColor=#080808;fontColor=#6C767D;whiteSpace=wrap;align=left;verticalAlign=middle;spacingLeft=0;fontStyle=0;fontSize=16;spacing=5;" vertex="1" parent="1">
          <mxGeometry x="150" y="545" width="230" height="55" as="geometry" />
        </mxCell>
        <mxCell id="bbrvCE03OxqFIxSEQbTr-13" value="" style="group" vertex="1" connectable="0" parent="1">
          <mxGeometry x="329" y="770" width="170" height="110" as="geometry" />
        </mxCell>
        <mxCell id="bbrvCE03OxqFIxSEQbTr-7" value="" style="rounded=1;whiteSpace=wrap;html=1;" vertex="1" parent="bbrvCE03OxqFIxSEQbTr-13">
          <mxGeometry width="120" height="60" as="geometry" />
        </mxCell>
        <mxCell id="bbrvCE03OxqFIxSEQbTr-8" value="" style="rounded=1;whiteSpace=wrap;html=1;" vertex="1" parent="bbrvCE03OxqFIxSEQbTr-13">
          <mxGeometry x="10" y="10" width="120" height="60" as="geometry" />
        </mxCell>
        <mxCell id="bbrvCE03OxqFIxSEQbTr-9" value="" style="rounded=1;whiteSpace=wrap;html=1;" vertex="1" parent="bbrvCE03OxqFIxSEQbTr-13">
          <mxGeometry x="20" y="20" width="120" height="60" as="geometry" />
        </mxCell>
        <mxCell id="bbrvCE03OxqFIxSEQbTr-10" value="" style="rounded=1;whiteSpace=wrap;html=1;" vertex="1" parent="bbrvCE03OxqFIxSEQbTr-13">
          <mxGeometry x="30" y="30" width="120" height="60" as="geometry" />
        </mxCell>
        <mxCell id="bbrvCE03OxqFIxSEQbTr-11" value="" style="rounded=1;whiteSpace=wrap;html=1;" vertex="1" parent="bbrvCE03OxqFIxSEQbTr-13">
          <mxGeometry x="40" y="40" width="120" height="60" as="geometry" />
        </mxCell>
        <mxCell id="bbrvCE03OxqFIxSEQbTr-12" value="webelements" style="rounded=1;whiteSpace=wrap;html=1;" vertex="1" parent="bbrvCE03OxqFIxSEQbTr-13">
          <mxGeometry x="50" y="50" width="120" height="60" as="geometry" />
        </mxCell>
        <mxCell id="bbrvCE03OxqFIxSEQbTr-14" value="" style="shape=flexArrow;endArrow=classic;html=1;rounded=0;entryX=0.575;entryY=0.016;entryDx=0;entryDy=0;entryPerimeter=0;" edge="1" parent="1">
          <mxGeometry width="50" height="50" relative="1" as="geometry">
            <mxPoint x="400" y="700" as="sourcePoint" />
            <mxPoint x="400" y="770.9600000000002" as="targetPoint" />
          </mxGeometry>
        </mxCell>
      </root>
    </mxGraphModel>
  </diagram>
  <diagram id="BfU7apK0MV4M4JS9sx-P" name="requests">
    <mxGraphModel dx="840" dy="610" grid="1" gridSize="10" guides="1" tooltips="1" connect="1" arrows="1" fold="1" page="1" pageScale="1" pageWidth="827" pageHeight="1169" math="0" shadow="0">
      <root>
        <mxCell id="0" />
        <mxCell id="1" parent="0" />
        <mxCell id="6HtErXHUuEDMDXWQa0li-5" value="requests" style="html=1;shadow=0;dashed=0;shape=mxgraph.bootstrap.rrect;rSize=5;strokeColor=#666666;strokeWidth=1;fillColor=#f5f5f5;fontColor=#333333;whiteSpace=wrap;align=center;verticalAlign=middle;spacingLeft=0;fontStyle=0;fontSize=16;spacing=5;" vertex="1" parent="1">
          <mxGeometry x="319" y="560" width="160" height="80" as="geometry" />
        </mxCell>
        <mxCell id="6HtErXHUuEDMDXWQa0li-7" value="" style="fontColor=#0066CC;verticalAlign=top;verticalLabelPosition=bottom;labelPosition=center;align=center;html=1;outlineConnect=0;fillColor=#CCCCCC;strokeColor=#6881B3;gradientColor=none;gradientDirection=north;strokeWidth=2;shape=mxgraph.networks.rack;" vertex="1" parent="1">
          <mxGeometry x="363" y="80" width="72" height="120" as="geometry" />
        </mxCell>
        <mxCell id="6HtErXHUuEDMDXWQa0li-8" value="" style="shape=flexArrow;endArrow=classic;startArrow=classic;html=1;rounded=0;entryX=0.5;entryY=1;entryDx=0;entryDy=0;entryPerimeter=0;width=24;" edge="1" parent="1" source="6HtErXHUuEDMDXWQa0li-5" target="6HtErXHUuEDMDXWQa0li-7">
          <mxGeometry width="100" height="100" relative="1" as="geometry">
            <mxPoint x="399" y="332" as="sourcePoint" />
            <mxPoint x="405" y="204" as="targetPoint" />
          </mxGeometry>
        </mxCell>
        <mxCell id="yjxiLoVBdJWlrKSehDYT-4" value="" style="html=1;shadow=0;dashed=0;shape=mxgraph.bootstrap.rrect;rSize=5;strokeColor=#DFDFDF;html=1;whiteSpace=wrap;fillColor=#FFFFFF;fontColor=#000000;" vertex="1" parent="1">
          <mxGeometry x="118" y="241" width="240" height="220" as="geometry" />
        </mxCell>
        <mxCell id="yjxiLoVBdJWlrKSehDYT-5" value="&lt;b&gt;HTTP&lt;/b&gt;" style="html=1;shadow=0;dashed=0;shape=mxgraph.bootstrap.topButton;strokeColor=inherit;fillColor=#33A64C;rSize=5;perimeter=none;whiteSpace=wrap;resizeWidth=1;align=left;spacing=10;fontColor=#E6E6E6;" vertex="1" parent="yjxiLoVBdJWlrKSehDYT-4">
          <mxGeometry width="240" height="30" relative="1" as="geometry" />
        </mxCell>
        <mxCell id="yjxiLoVBdJWlrKSehDYT-6" value="&lt;b&gt;GET&lt;/b&gt;&amp;nbsp;запрос данных от сервера (без изменения состояния)" style="strokeColor=inherit;fillColor=inherit;gradientColor=inherit;fontColor=inherit;html=1;shadow=0;dashed=0;perimeter=none;whiteSpace=wrap;resizeWidth=1;align=left;spacing=10;" vertex="1" parent="yjxiLoVBdJWlrKSehDYT-4">
          <mxGeometry width="240" height="30" relative="1" as="geometry">
            <mxPoint y="30" as="offset" />
          </mxGeometry>
        </mxCell>
        <mxCell id="yjxiLoVBdJWlrKSehDYT-7" value="&lt;b&gt;POST&lt;/b&gt; отправка данных на сервер (например, форма, загрузка файла)" style="strokeColor=inherit;fillColor=inherit;gradientColor=inherit;fontColor=inherit;html=1;shadow=0;dashed=0;perimeter=none;whiteSpace=wrap;resizeWidth=1;align=left;spacing=10;" vertex="1" parent="yjxiLoVBdJWlrKSehDYT-4">
          <mxGeometry width="240" height="30" relative="1" as="geometry">
            <mxPoint y="60" as="offset" />
          </mxGeometry>
        </mxCell>
        <mxCell id="yjxiLoVBdJWlrKSehDYT-8" value="&lt;b&gt;CONNECT&lt;/b&gt;&amp;nbsp;используется для туннелирования (например, в HTTPS)" style="strokeColor=inherit;fillColor=inherit;gradientColor=inherit;fontColor=inherit;html=1;shadow=0;dashed=0;shape=mxgraph.bootstrap.bottomButton;rSize=5;perimeter=none;whiteSpace=wrap;resizeWidth=1;resizeHeight=0;align=left;spacing=10;" vertex="1" parent="yjxiLoVBdJWlrKSehDYT-4">
          <mxGeometry y="1" width="240" height="30" relative="1" as="geometry">
            <mxPoint y="19" as="offset" />
          </mxGeometry>
        </mxCell>
        <mxCell id="yjxiLoVBdJWlrKSehDYT-9" value="&lt;b&gt;PUT&lt;/b&gt;&amp;nbsp;обновление или создание ресурса (идемпотентный)" style="strokeColor=inherit;fillColor=inherit;gradientColor=inherit;fontColor=inherit;html=1;shadow=0;dashed=0;perimeter=none;whiteSpace=wrap;resizeWidth=1;align=left;spacing=10;" vertex="1" parent="yjxiLoVBdJWlrKSehDYT-4">
          <mxGeometry y="90" width="240" height="30" as="geometry" />
        </mxCell>
        <mxCell id="s0eaTPi8BARIKoo4Gqop-1" value="&lt;b&gt;HEAD&amp;nbsp;&lt;/b&gt;аналогичен GET, но возвращает только заголовки (без тела ответа)" style="strokeColor=inherit;fillColor=inherit;gradientColor=inherit;fontColor=inherit;html=1;shadow=0;dashed=0;perimeter=none;whiteSpace=wrap;resizeWidth=1;align=left;spacing=10;" vertex="1" parent="yjxiLoVBdJWlrKSehDYT-4">
          <mxGeometry y="120" width="240" height="30" as="geometry" />
        </mxCell>
        <mxCell id="s0eaTPi8BARIKoo4Gqop-2" value="&lt;b style=&quot;border-color: var(--border-color);&quot;&gt;DELETE&lt;/b&gt;&amp;nbsp;удаление ресурса" style="strokeColor=inherit;fillColor=inherit;gradientColor=inherit;fontColor=inherit;html=1;shadow=0;dashed=0;perimeter=none;whiteSpace=wrap;resizeWidth=1;align=left;spacing=10;" vertex="1" parent="yjxiLoVBdJWlrKSehDYT-4">
          <mxGeometry y="150" width="240" height="30" as="geometry" />
        </mxCell>
        <mxCell id="s0eaTPi8BARIKoo4Gqop-3" value="&lt;b&gt;OPTIONS&amp;nbsp;&lt;/b&gt;запрос поддерживаемых методов для ресурса" style="strokeColor=inherit;fillColor=inherit;gradientColor=inherit;fontColor=inherit;html=1;shadow=0;dashed=0;perimeter=none;whiteSpace=wrap;resizeWidth=1;align=left;spacing=10;" vertex="1" parent="yjxiLoVBdJWlrKSehDYT-4">
          <mxGeometry y="180" width="240" height="30" as="geometry" />
        </mxCell>
        <mxCell id="s0eaTPi8BARIKoo4Gqop-4" value="&lt;b&gt;TRACE&amp;nbsp;&lt;/b&gt;эхо-тест для диагностики" style="strokeColor=inherit;fillColor=inherit;gradientColor=inherit;fontColor=inherit;html=1;shadow=0;dashed=0;perimeter=none;whiteSpace=wrap;resizeWidth=1;align=left;spacing=10;" vertex="1" parent="yjxiLoVBdJWlrKSehDYT-4">
          <mxGeometry y="209" width="240" height="30" as="geometry" />
        </mxCell>
        <mxCell id="s0eaTPi8BARIKoo4Gqop-5" value="Raw Data" style="shape=card;whiteSpace=wrap;html=1;" vertex="1" parent="1">
          <mxGeometry x="363" y="680" width="80" height="100" as="geometry" />
        </mxCell>
        <mxCell id="s0eaTPi8BARIKoo4Gqop-6" value="" style="endArrow=classic;html=1;rounded=0;entryX=0.469;entryY=0.011;entryDx=0;entryDy=0;entryPerimeter=0;exitX=0.5;exitY=1.003;exitDx=0;exitDy=0;exitPerimeter=0;" edge="1" parent="1" source="6HtErXHUuEDMDXWQa0li-5" target="s0eaTPi8BARIKoo4Gqop-5">
          <mxGeometry width="50" height="50" relative="1" as="geometry">
            <mxPoint x="390" y="680" as="sourcePoint" />
            <mxPoint x="440" y="630" as="targetPoint" />
          </mxGeometry>
        </mxCell>
        <mxCell id="_bS-ekIPAcyunkdptFEt-1" value="bs4" style="html=1;shadow=0;dashed=0;shape=mxgraph.bootstrap.rrect;rSize=5;strokeColor=#666666;strokeWidth=1;fillColor=#f5f5f5;fontColor=#333333;whiteSpace=wrap;align=center;verticalAlign=middle;spacingLeft=0;fontStyle=0;fontSize=16;spacing=5;" vertex="1" parent="1">
          <mxGeometry x="324" y="830" width="160" height="80" as="geometry" />
        </mxCell>
        <mxCell id="_bS-ekIPAcyunkdptFEt-2" value="" style="endArrow=classic;html=1;rounded=0;entryX=0.472;entryY=-0.01;entryDx=0;entryDy=0;entryPerimeter=0;exitX=0.461;exitY=1;exitDx=0;exitDy=0;exitPerimeter=0;" edge="1" parent="1" source="s0eaTPi8BARIKoo4Gqop-5" target="_bS-ekIPAcyunkdptFEt-1">
          <mxGeometry width="50" height="50" relative="1" as="geometry">
            <mxPoint x="397.89" y="840" as="sourcePoint" />
            <mxPoint x="399.89" y="941" as="targetPoint" />
          </mxGeometry>
        </mxCell>
        <mxCell id="otDYtx1_lC2BkY7mTGnZ-1" value="" style="group" vertex="1" connectable="0" parent="1">
          <mxGeometry x="329" y="959" width="170" height="110" as="geometry" />
        </mxCell>
        <mxCell id="otDYtx1_lC2BkY7mTGnZ-2" value="" style="rounded=1;whiteSpace=wrap;html=1;" vertex="1" parent="otDYtx1_lC2BkY7mTGnZ-1">
          <mxGeometry width="120" height="60" as="geometry" />
        </mxCell>
        <mxCell id="otDYtx1_lC2BkY7mTGnZ-3" value="" style="rounded=1;whiteSpace=wrap;html=1;" vertex="1" parent="otDYtx1_lC2BkY7mTGnZ-1">
          <mxGeometry x="10" y="10" width="120" height="60" as="geometry" />
        </mxCell>
        <mxCell id="otDYtx1_lC2BkY7mTGnZ-4" value="" style="rounded=1;whiteSpace=wrap;html=1;" vertex="1" parent="otDYtx1_lC2BkY7mTGnZ-1">
          <mxGeometry x="20" y="20" width="120" height="60" as="geometry" />
        </mxCell>
        <mxCell id="otDYtx1_lC2BkY7mTGnZ-5" value="" style="rounded=1;whiteSpace=wrap;html=1;" vertex="1" parent="otDYtx1_lC2BkY7mTGnZ-1">
          <mxGeometry x="30" y="30" width="120" height="60" as="geometry" />
        </mxCell>
        <mxCell id="otDYtx1_lC2BkY7mTGnZ-6" value="" style="rounded=1;whiteSpace=wrap;html=1;" vertex="1" parent="otDYtx1_lC2BkY7mTGnZ-1">
          <mxGeometry x="40" y="40" width="120" height="60" as="geometry" />
        </mxCell>
        <mxCell id="otDYtx1_lC2BkY7mTGnZ-7" value="Structured Data" style="rounded=1;whiteSpace=wrap;html=1;" vertex="1" parent="otDYtx1_lC2BkY7mTGnZ-1">
          <mxGeometry x="50" y="50" width="120" height="60" as="geometry" />
        </mxCell>
        <mxCell id="otDYtx1_lC2BkY7mTGnZ-8" value="" style="endArrow=classic;html=1;rounded=0;entryX=0.472;entryY=-0.01;entryDx=0;entryDy=0;entryPerimeter=0;exitX=0.461;exitY=1;exitDx=0;exitDy=0;exitPerimeter=0;" edge="1" parent="1">
          <mxGeometry width="50" height="50" relative="1" as="geometry">
            <mxPoint x="398" y="911" as="sourcePoint" />
            <mxPoint x="398" y="960" as="targetPoint" />
          </mxGeometry>
        </mxCell>
      </root>
    </mxGraphModel>
  </diagram>
</mxfile>
